<svg width="945" height="495" viewBox="0 0 945 495" fill="none" xmlns="http://www.w3.org/2000/svg">
<g clip-path="url(#clip0_11408_220171)">
<mask id="mask0_11408_220171" style="mask-type:luminance" maskUnits="userSpaceOnUse" x="0" y="0" width="945" height="495">
<path d="M945 0H0V495H945V0Z" fill="white"/>
</mask>
<g mask="url(#mask0_11408_220171)">
<path d="M945.43 0H-0.429688V495H945.43V0Z" fill="#94D0F8"/>
<path d="M472.501 786.33C677.761 786.33 844.151 619.94 844.151 414.68C844.151 209.42 677.761 43.03 472.501 43.03C267.241 43.03 100.851 209.42 100.851 414.68C100.851 619.94 267.241 786.33 472.501 786.33Z" fill="#3E5FFF"/>
<path d="M260.99 308.7L225.81 372.75C216.46 389.78 228.78 410.59 248.2 410.59H320.19L326.82 346.49L260.99 308.7Z" fill="#FF7059"/>
<path d="M486.9 308.7L522.34 373.23C531.57 390.04 519.41 410.6 500.23 410.6H427.7L421.07 346.5L486.9 308.7Z" fill="#FF7059"/>
<path d="M554.59 174.81V198C554.59 219.34 571.89 236.64 593.23 236.64V162.71L554.59 174.81Z" fill="#FF7059"/>
<path d="M561.88 76.57H552L619.07 144.2V133.77C619.07 119.05 613.4 104.9 603.23 94.26C592.44 82.96 577.5 76.57 561.87 76.57H561.88Z" fill="#FF7059"/>
<path d="M493.511 339.44C493.371 339.61 493.241 339.78 493.101 339.96C482.791 352.83 470.461 363.98 456.571 372.95C456.531 372.97 456.501 373 456.461 373.02C455.641 373.55 454.801 374.07 453.961 374.59C453.941 374.61 453.911 374.62 453.891 374.64C453.121 375.12 452.351 375.59 451.561 376.05H451.551C428.841 389.49 402.331 397.21 374.021 397.21C336.781 397.21 302.661 383.86 276.191 361.69C275.701 361.28 275.201 360.86 274.721 360.43C267.921 354.6 261.641 348.17 255.961 341.23C255.481 340.64 255.001 340.05 254.531 339.45L257.621 321.03C261.031 300.72 274.041 283.28 292.551 274.23L341.591 251.2H406.531L455.511 274.23C474.021 283.27 487.021 300.72 490.421 321.03L493.511 339.44Z" fill="#FF7059"/>
<path d="M456.571 372.95C456.571 372.95 456.501 373 456.461 373.02C455.641 373.55 454.801 374.07 453.961 374.59C453.941 374.61 453.911 374.62 453.891 374.64C453.121 375.12 452.351 375.59 451.561 376.05L452.241 372.62C452.451 371.62 453.171 371.05 453.961 370.9C455.081 370.69 456.341 371.32 456.541 372.74L456.571 372.95Z" fill="#CE8282"/>
<path d="M453.101 389.98H297.271L290.751 448.21C289.071 463.22 300.741 476.35 315.751 476.35H434.621C449.631 476.35 461.301 463.21 459.621 448.21L453.101 389.98Z" fill="#FF7059"/>
<path d="M658.53 423.38H152.19C148.88 423.38 146.2 420.7 146.2 417.39V416.59C146.2 413.28 148.88 410.6 152.19 410.6H658.54C661.85 410.6 664.53 413.28 664.53 416.59V417.39C664.53 420.69 661.84 423.38 658.53 423.38Z" fill="white"/>
<path d="M228.08 415.53L227.16 423.38L194.83 699.81H181.96L214.29 423.38L215.39 414.05L228.08 415.53Z" fill="white"/>
<path d="M628.761 699.81H615.881L583.551 423.38L582.631 415.53L595.331 414.05L596.431 423.38L628.761 699.81Z" fill="white"/>
<path d="M459.241 410.59H288.801C281.811 410.59 276.141 404.92 276.141 397.93V298.81C276.141 291.82 281.811 286.15 288.801 286.15H459.241C466.231 286.15 471.901 291.82 471.901 298.81V397.93C471.901 404.92 466.231 410.59 459.241 410.59Z" fill="#3D3D3D"/>
<path d="M374.021 358.26C379.481 358.26 383.911 353.83 383.911 348.37C383.911 342.91 379.481 338.48 374.021 338.48C368.561 338.48 364.131 342.91 364.131 348.37C364.131 353.83 368.561 358.26 374.021 358.26Z" fill="#C2DBF3"/>
<path d="M700.761 315.26L652.891 477.84C647.201 497.18 645.511 517.47 647.931 537.49L660.811 644.03C662.601 658.8 675.131 669.91 690.011 669.91H745.781L741.011 452.29" fill="#94D0F8"/>
<path d="M655.621 601.08L660.811 644.02C662.591 658.71 674.991 669.77 689.761 669.89L670.991 601.98L686.711 450.61C686.931 448.51 683.841 448.07 683.461 450.14L655.621 601.08Z" fill="#6AADD7"/>
<path d="M785.53 315.26V645.7C785.53 659.06 774.7 669.9 761.33 669.9H690.77C676.42 669.9 665.22 657.48 666.7 643.2L700.75 315.26H785.53Z" fill="#94D0F8"/>
<path d="M678.91 389.47L742.96 339.18C744.82 337.72 743.04 334.81 740.89 335.8L696.71 356.19L688.28 357.63L678.91 389.47Z" fill="#6AADD7"/>
<path d="M623.91 346.49H642.47C659.95 346.49 674.12 332.32 674.12 314.84V257.58" fill="#9AC1DD"/>
<path d="M526.031 270.9V291.96L500.611 294.63C494.671 295.26 488.931 292.28 486.031 287.07C484.701 284.71 482.801 282.79 480.551 281.48C478.301 280.16 475.701 279.43 473.001 279.43H454.121C452.661 279.43 451.601 278.03 452.001 276.62C452.221 275.88 452.791 275.31 453.521 275.1L488.031 265.38C494.081 263.68 500.501 263.68 506.551 265.39L526.031 270.9Z" fill="#FFBC6E"/>
<path d="M786.261 314.86L696.711 356.19C682.661 362.68 665.991 356.94 658.901 343.18L594.951 218.95C587.131 203.77 586.201 185.96 592.391 170.05L604.491 136.87L633.721 151.42C665.611 167.3 694.981 187.81 720.871 212.29L792.041 279.58C803.151 290.07 800.131 308.46 786.261 314.86Z" fill="white"/>
<path d="M603.021 389.98C603.021 395.47 594.501 396.2 587.401 395.85C580.481 395.51 573.571 396.64 567.181 399.31L550.701 406.18C549.851 406.54 549.291 407.37 549.291 408.29C549.291 409.55 550.321 410.58 551.581 410.58H638.431L640.061 398.93" fill="#FFBC6E"/>
<path d="M646.24 181.54H603.02V389.98L620.729 404.32C625.739 408.38 631.99 410.59 638.43 410.59C655.09 410.59 668.099 396.19 666.409 379.61L646.24 181.54Z" fill="white"/>
<path d="M644.131 346.49H560.151C541.311 346.49 526.031 331.22 526.031 312.37V270.9L619.891 297.47L644.131 346.49Z" fill="white"/>
<path d="M644.46 190.7H588.35V305.28H644.46V190.7Z" fill="white"/>
<path d="M593.23 346.49C593.23 346.49 596.34 323.19 599.05 302.87C599.38 300.41 603.021 300.65 603.021 303.14V346.49H593.23Z" fill="#E2E2E2"/>
<path d="M658.46 301.54L663.35 349.53C666.91 353.4 671.41 356.17 676.32 357.63L661.75 300.95C661.23 298.95 658.25 299.48 658.46 301.54Z" fill="#E2E2E2"/>
<path d="M372.54 465.51L371.37 466.41C348.65 448.56 320.59 438.86 291.69 438.86H291.64C271.55 438.86 255.57 455.74 256.68 475.8L267.65 675H323.3L332.94 499.8H410.63L420.27 675H475.92L486.89 475.79C487.99 455.73 472.02 438.85 451.93 438.85H451.06C422.67 438.86 395.07 448.22 372.54 465.51Z" fill="#94D0F8"/>
<path d="M619.061 144.19L600.651 144.71L587.031 158.37L598.141 188.39C599.181 191.22 603.201 191.16 604.171 188.3L619.061 144.18V144.19Z" fill="#FFBC6E"/>
<path d="M590.53 167.63L619.06 144.19L604.87 123.26L578.59 103.03C566.04 84.52 547.54 71 529.03 83.55C510.52 96.1 505.69 121.28 518.23 139.78L531.3 159.05C544.67 178.78 572.11 182.74 590.53 167.62" fill="#FFBC6E"/>
<path d="M521.23 152.15C521.38 153.8 522.52 155.17 524.12 155.63L530.67 157.57L520.41 142.22L521.24 152.15H521.23Z" fill="#FFBC6E"/>
<path d="M524.32 131.02C524.83 130.67 525.18 130.1 525.22 129.43C525.28 128.31 524.42 127.36 523.3 127.31C523.1 127.3 518.36 127.09 513.84 130.47C512.94 131.14 512.75 132.41 513.42 133.31C514.09 134.21 515.36 134.41 516.26 133.73C519.57 131.25 523.06 131.37 523.09 131.37C523.54 131.39 523.96 131.26 524.31 131.01" fill="#FF7059"/>
<path d="M524.681 143.26C526.631 146.27 528.511 148.51 529.381 147.94C530.261 147.37 528.971 144.75 527.021 141.74C525.071 138.73 523.191 136.49 522.321 137.06C521.441 137.63 522.731 140.25 524.681 143.26Z" fill="black"/>
<path d="M547.47 163.91C546.84 164.34 546.66 165.09 546.99 165.68C547.34 166.3 548.14 166.52 548.76 166.16C549.04 165.99 549.33 165.81 549.6 165.63C554.8 162.1 557.34 154.81 555.4 149.02C555.29 148.69 555.05 148.43 554.74 148.27C554.43 148.12 554.08 148.09 553.74 148.2C553.63 148.24 553.52 148.29 553.42 148.36C552.94 148.68 552.73 149.3 552.92 149.85C554.52 154.58 552.41 160.56 548.12 163.47C547.91 163.62 547.68 163.77 547.45 163.88H547.46L547.47 163.91Z" fill="black"/>
<path d="M566.53 115.89C566.21 116.36 554.24 126.69 535.18 124.2C524.47 122.81 515.95 119.33 511.33 114.63C512.07 102.52 518.22 90.88 529.03 83.55C547.54 71 572.72 75.84 585.27 94.35L604.87 123.26C592.1 132.05 579.18 123.03 567.92 116.68C567.45 116.42 566.99 116.15 566.54 115.9L566.53 115.89Z" fill="#FF7059"/>
<path d="M565.091 123.14C562.401 119.18 563.441 113.79 567.411 111.09C571.381 108.4 576.771 109.44 579.461 113.41C582.151 117.38 581.111 122.76 577.141 125.46C573.171 128.15 567.791 127.11 565.091 123.14Z" fill="#FFBC6E"/>
<path d="M407.1 262.66C407.1 264.73 405.78 266.55 403.82 267.18L400.5 268.25C383.26 273.79 364.72 273.79 347.5 268.25L344.2 267.18C342.24 266.55 340.92 264.73 340.92 262.68V189.71H407.1V262.66Z" fill="#FFBC6E"/>
<path d="M346.179 192.64C346.179 187.65 342.149 183.64 337.189 183.64C332.229 183.64 328.189 187.65 328.189 192.64C328.189 197.63 332.219 205.72 337.189 205.72C342.159 205.72 346.179 197.59 346.179 192.64Z" fill="#FFBC6E"/>
<path d="M419.721 192.64C419.721 187.65 415.691 183.64 410.721 183.64C405.751 183.64 401.721 187.65 401.721 192.64C401.721 197.63 405.751 205.72 410.721 205.72C415.691 205.72 419.721 197.59 419.721 192.64Z" fill="#FFBC6E"/>
<path d="M373.94 234.4C353.05 234.4 335.9 217.91 335.06 197.06L333.74 175.95C332.82 153.11 351.09 134.09 373.94 134.09C396.79 134.09 415.06 153.11 414.15 175.95L412.83 197.06C412 217.91 394.84 234.4 373.94 234.4Z" fill="black"/>
<path d="M373.94 249.84C353.05 249.84 335.9 233.35 335.06 212.5L333.74 191.39C332.82 168.55 351.09 149.53 373.94 149.53C396.79 149.53 415.06 168.55 414.15 191.39L412.83 212.5C412 233.35 394.84 249.84 373.94 249.84Z" fill="#FFBC6E"/>
<path d="M372.321 252.1C370.681 251.64 371.281 249.78 372.991 249.82C373.311 249.82 373.631 249.83 373.951 249.83C387.931 249.83 400.241 242.45 407.101 231.31V245.65C400.561 250.64 392.401 253.55 383.571 253.55C380.061 253.55 376.051 253.13 372.311 252.09L372.321 252.1Z" fill="#E59A48"/>
<path d="M414.131 191.71V174H414.101C414.101 151.8 396.081 133.77 373.871 133.77C351.661 133.77 333.631 151.8 333.631 174V191.69C333.631 193.43 335.041 194.88 336.801 194.88C338.561 194.88 339.981 193.44 339.981 191.69C339.981 190.62 340.031 189.52 340.141 188.42C340.141 184.59 340.931 182.18 341.881 180.66C343.281 178.41 346.231 178.75 348.831 179.29C363.531 182.35 387.571 174.6 387.571 161.32C387.571 175.18 393.481 183.72 404.001 184.48C405.031 184.55 406.141 184.67 406.831 185.44C407.331 186.01 407.791 186.89 407.791 188.21V191.72C407.791 193.47 409.211 194.88 410.961 194.88C412.711 194.88 414.141 193.47 414.141 191.72L414.131 191.71Z" fill="black"/>
<path d="M374.511 232.96C373.741 232.75 373.031 233.13 372.791 233.79C372.541 234.48 372.911 235.26 373.611 235.5C373.931 235.61 374.261 235.71 374.591 235.8C380.911 237.49 388.371 234.53 391.601 229.06C391.781 228.75 391.831 228.39 391.741 228.03C391.651 227.68 391.431 227.39 391.121 227.2C391.021 227.13 390.911 227.1 390.781 227.06C390.191 226.9 389.571 227.16 389.261 227.68C386.621 232.16 380.491 234.58 375.281 233.18C375.021 233.11 374.751 233.04 374.501 232.93L374.521 232.94L374.511 232.96Z" fill="black"/>
<path d="M361.27 210.67C361.27 213.89 360.86 216.49 359.63 216.49C358.4 216.49 357.99 213.88 357.99 210.67C357.99 207.46 358.4 204.85 359.63 204.85C360.86 204.85 361.27 207.45 361.27 210.67Z" fill="black"/>
<path d="M389.889 210.67C389.889 213.89 389.479 216.49 388.249 216.49C387.019 216.49 386.609 213.88 386.609 210.67C386.609 207.46 387.019 204.85 388.249 204.85C389.479 204.85 389.889 207.45 389.889 210.67Z" fill="black"/>
<path d="M363.471 197.99C364.021 197.56 364.371 196.91 364.361 196.18C364.341 194.96 363.351 193.96 362.111 193.96C361.891 193.96 356.661 194.03 351.871 198.04C350.911 198.83 350.791 200.23 351.581 201.2C352.371 202.15 353.791 202.27 354.751 201.48C358.251 198.54 362.101 198.45 362.141 198.48C362.631 198.48 363.101 198.3 363.481 198.02" fill="black"/>
<path d="M384.429 198.33C384.819 198.58 385.289 198.73 385.789 198.71C385.829 198.69 389.669 198.56 393.329 201.3C394.329 202.04 395.729 201.84 396.469 200.85C397.209 199.84 397.009 198.45 396.009 197.71C391.009 193.97 385.779 194.18 385.559 194.21C384.329 194.27 383.389 195.33 383.439 196.54C383.469 197.27 383.859 197.91 384.429 198.3" fill="black"/>
</g>
</g>
<defs>
<clipPath id="clip0_11408_220171">
<rect width="945" height="495" fill="white"/>
</clipPath>
</defs>
</svg>
